<svg id="Capa_1" enable-background="new 0 0 507.763 507.763" height="512" viewBox="0 0 507.763 507.763" width="512" xmlns="http://www.w3.org/2000/svg"><path d="m486.109 203.204-68.481-138.157c-1.444-2.913-3.656-5.378-6.397-7.128l-82.16-52.445c-9.734-6.214-22.308-6.341-32.032-.324-26.138 16.17-54.137 15.682-85.596-1.496-9.556-5.218-21.253-4.824-30.527 1.029l-14.171 8.943c-.017.01-.032.021-.049.031l-70.099 44.238c-2.777 1.753-5.016 4.235-6.474 7.177l-68.469 138.132c-2.916 5.882-.734 13.041 4.965 16.298l74.734 42.705v233.561c0 6.614 5.381 11.995 11.995 11.995h281.067c6.614 0 11.995-5.381 11.995-11.995v-80.068c0-4.142-3.358-7.5-7.5-7.5s-7.5 3.358-7.5 7.5v77.063h-275.057v-324.016c0-4.142-3.358-7.5-7.5-7.5s-7.5 3.358-7.5 7.5v76.184l-65.179-37.245 67.389-135.953c.234-.473.594-.872 1.04-1.153l60.931-38.453c3.435 12.411 9.481 24.031 17.811 34.068 1.483 1.788 3.621 2.71 5.775 2.71 1.688 0 3.386-.566 4.786-1.729 3.188-2.646 3.627-7.374.982-10.561-7.955-9.586-13.426-20.886-15.988-32.923l10.02-6.324c.312-.197.631-.38.953-.552 1.967 14.061 8.467 27.034 18.764 37.121 12.156 11.909 28.225 18.468 45.245 18.468 16.881 0 32.855-6.467 44.979-18.209 10.486-10.156 17.115-23.312 19.067-37.58 1.064.381 2.097.878 3.073 1.501l7.955 5.078c-7.241 35.208-38.699 61.209-75.074 61.209-13.312 0-26.45-3.5-37.993-10.12-3.594-2.061-8.177-.819-10.237 2.774-2.061 3.593-.818 8.177 2.774 10.237 13.812 7.921 29.53 12.108 45.456 12.108 41.567 0 77.764-28.403 88.448-67.672l60.83 38.829c.44.282.796.678 1.028 1.146l67.401 135.978-65.179 37.245v-76.184c0-4.142-3.358-7.5-7.5-7.5s-7.5 3.358-7.5 7.5v216.955c0 4.142 3.358 7.5 7.5 7.5s7.5-3.358 7.5-7.5v-123.493l74.734-42.705c5.699-3.257 7.881-10.416 4.965-16.298zm-232.228-145.799c-13.071 0-25.412-5.037-34.748-14.183-7.274-7.127-12.08-16.127-13.981-25.927 34.676 18.644 67.282 19.413 96.98 2.28-5.27 21.868-24.818 37.83-48.251 37.83z"/></svg>