<?xml version="1.0" encoding="iso-8859-1"?>
<!-- Generator: Adobe Illustrator 16.0.0, SVG Export Plug-In . SVG Version: 6.00 Build 0)  -->
<!DOCTYPE svg PUBLIC "-//W3C//DTD SVG 1.1//EN" "http://www.w3.org/Graphics/SVG/1.1/DTD/svg11.dtd">
<svg version="1.1" id="Capa_1" xmlns="http://www.w3.org/2000/svg" xmlns:xlink="http://www.w3.org/1999/xlink" x="0px" y="0px"
	 width="560.344px" height="560.344px" viewBox="0 0 560.344 560.344" style="enable-background:new 0 0 560.344 560.344;"
	 xml:space="preserve">
<g>
	<g>
		<path d="M122.477,50.834v461.707c0,12.383,8.463,28.477,22.128,32.895c21.009,6.799,60.98,14.908,132.192,14.908
			c3.921,0,7.918-0.02,12.049-0.077c72.818-0.908,109.5-8.061,127.449-13.913c13.34-4.341,21.572-20.933,21.572-33.822V57.079
			c0-13.387-10.068-27.703-22.453-31.9C387.684,15.778,333.215,0,280.172,0c-50.337,0-105.761,12.613-134.324,20.129
			C132.977,23.524,122.477,37.304,122.477,50.834z M136.82,50.834c0-7.191,5.919-15.061,12.68-16.839
			c27.903-7.344,82.008-19.661,130.681-19.661c50.949,0,103.715,15.3,130.643,24.422c6.646,2.257,12.699,10.987,12.699,18.322
			v455.462c0,7.573-5.098,18.034-11.676,20.177c-16.973,5.536-52.125,12.326-123.175,13.205
			c-76.93,0.861-118.546-7.306-139.65-14.143c-6.875-2.219-12.211-12.163-12.211-19.249V50.834H136.82z"/>
		<path d="M156.185,515.084h248.53c1.979,0,3.586-1.606,3.586-3.586V70.6c0-1.979-1.607-3.586-3.586-3.586h-248.53
			c-1.979,0-3.586,1.606-3.586,3.586v440.898C152.599,513.487,154.205,515.084,156.185,515.084z M169.333,74.186h222.233
			c5.277,0,9.562,4.284,9.562,9.562V498.35c0,5.278-4.285,9.562-9.562,9.562H169.333c-5.278,0-9.562-4.284-9.562-9.562V83.749
			C159.771,78.47,164.055,74.186,169.333,74.186z"/>
		<path d="M268.496,50.271h25.981c1.979,0,3.586-1.607,3.586-3.586c0-1.979-1.606-3.586-3.586-3.586h-25.981
			c-1.979,0-3.586,1.606-3.586,3.586C264.91,48.664,266.517,50.271,268.496,50.271z"/>
		<path d="M312.158,53.388c5.135,0,9.324-4.179,9.324-9.314s-4.189-9.304-9.324-9.304c-5.115,0-9.305,4.179-9.305,9.304
			S307.043,53.388,312.158,53.388z M312.158,41.941c1.176,0,2.152,0.956,2.152,2.132c0,2.362-4.275,2.362-4.275,0
			C310.025,42.907,310.982,41.941,312.158,41.941z"/>
	</g>
</g>
<g>
</g>
<g>
</g>
<g>
</g>
<g>
</g>
<g>
</g>
<g>
</g>
<g>
</g>
<g>
</g>
<g>
</g>
<g>
</g>
<g>
</g>
<g>
</g>
<g>
</g>
<g>
</g>
<g>
</g>
</svg>
