<?xml version="1.0" ?><svg style="enable-background:new 0 0 128 128;" version="1.1" viewBox="0 0 128 128" xml:space="preserve" xmlns="http://www.w3.org/2000/svg" xmlns:xlink="http://www.w3.org/1999/xlink"><g id="Train"/><g id="Car"/><g id="Taxi"><path d="M95.4,60.4l-7.2-14.7c-1.4-2.8-4.4-4.7-7.7-4.7h-7.8l-1.5-7.2c-0.1-0.5-0.5-0.8-1-0.8H57.7c-0.5,0-0.9,0.3-1,0.8L55.2,41   h-7.8c-3.3,0-6.3,1.8-7.7,4.7l-7.1,14.5c-3.2,0.7-5.7,3.6-5.7,7.1V84v6.4c0,2.5,2.1,4.6,4.6,4.6h11.8c2.5,0,4.6-2.1,4.6-4.6V85h32   v5.2c0,2.7,2.2,4.8,4.8,4.8h11.4c2.7,0,4.8-2.2,4.8-4.8V84V68C101,64.5,98.7,61.5,95.4,60.4z M58.5,35h11l1.2,6H57.2L58.5,35z    M41.5,46.6c1.1-2.2,3.4-3.6,5.9-3.6H56h16h8.6c2.5,0,4.8,1.4,5.9,3.6L93,60H93H35L41.5,46.6z M29,67.3c0-2.9,2.4-5.3,5.3-5.3H93   c3.3,0,6,2.7,6,6v15H81H47H29V67.3z M46,90.4c0,1.4-1.2,2.6-2.6,2.6H31.6c-1.4,0-2.6-1.2-2.6-2.6V85h17V90.4z M99,90.2   c0,1.6-1.3,2.8-2.8,2.8H84.8c-1.6,0-2.8-1.3-2.8-2.8V85h17V90.2z"/><path d="M38,70c-2.8,0-5,2.2-5,5s2.2,5,5,5s5-2.2,5-5S40.8,70,38,70z M38,78c-1.7,0-3-1.3-3-3s1.3-3,3-3s3,1.3,3,3S39.7,78,38,78z"/><path d="M90,80c2.8,0,5-2.2,5-5s-2.2-5-5-5s-5,2.2-5,5S87.2,80,90,80z M90,72c1.7,0,3,1.3,3,3s-1.3,3-3,3s-3-1.3-3-3S88.3,72,90,72   z"/></g><g id="Truk"/><g id="Cruise"/><g id="Railway"/><g id="Trem"/><g id="Bus"/><g id="Yatch"/><g id="pLANE"/><g id="Bicycle"/><g id="Halte"/><g id="Bus_Stop"/><g id="Station"/><g id="Airport"/><g id="Layer_17"/></svg>