<?xml version="1.0" encoding="iso-8859-1"?>
<!-- Generator: Adobe Illustrator 19.0.0, SVG Export Plug-In . SVG Version: 6.00 Build 0)  -->
<svg version="1.1" id="Capa_1" xmlns="http://www.w3.org/2000/svg" xmlns:xlink="http://www.w3.org/1999/xlink" x="0px" y="0px"
	 viewBox="0 0 511.999 511.999" style="enable-background:new 0 0 511.999 511.999;" xml:space="preserve">
<g>
	<g>
		<path d="M496.269,333.383v-60.463c0-19.789-16.042-35.831-35.831-35.831h-20.163l4.133-11.176h29.391
			c17.233,0,31.194-14.27,30.692-31.613c-0.351-12.078-10.424-21.612-22.508-21.612h-27.953c-12.438,0-22.521,10.083-22.521,22.521
			v21.74l-1.775,4.803l-21.44-64.395c-5.614-16.862-21.39-28.237-39.161-28.237h-9.59l-14-71.095
			c-0.702-3.565-3.827-6.135-7.461-6.135h-45.07c-4.199,0-7.604,3.405-7.604,7.604c0,4.199,3.405,7.604,7.604,7.604h38.818
			l12.214,62.022H167.95l12.213-62.022h77.36c4.199,0,7.604-3.405,7.604-7.604s-3.405-7.604-7.604-7.604h-83.612
			c-3.634,0-6.759,2.57-7.461,6.135l-14,71.095h-9.59c-17.772,0-33.548,11.376-39.161,28.237l-21.44,64.395l-1.775-4.803v-21.74
			c0-12.438-10.083-22.521-22.521-22.521H30.007c-12.083,0-22.157,9.533-22.507,21.612c-0.504,17.344,13.459,31.613,30.692,31.613
			h29.391l4.133,11.176H51.552c-19.789,0-35.83,16.041-35.83,35.83v60.466C6.741,335.379,0,343.393,0,352.965v25.252
			c0,11.083,8.984,20.066,20.066,20.066h8.835v39.075c0,12.565,10.185,22.75,22.75,22.75h58.414c12.565,0,22.75-10.185,22.75-22.75
			v-39.075h13.189c3.348,12.257,14.573,21.294,27.876,21.294h164.228c13.303,0,24.528-9.039,27.876-21.294h13.192v39.075
			c0,12.565,10.185,22.75,22.75,22.75h58.415c12.565,0,22.75-10.185,22.75-22.75v-39.076h8.841c11.083,0,20.066-8.984,20.066-20.066
			v-25.251C512,343.39,505.254,335.373,496.269,333.383z M446.716,195.21c0-4.032,3.281-7.313,7.313-7.313h27.953
			c4.032,0,7.313,3.281,7.313,7.313c0,8.545-6.952,15.497-15.497,15.497h-27.082V195.21z M65.274,210.707H38.192
			c-8.545,0-15.497-6.952-15.497-15.497c0-4.032,3.28-7.313,7.312-7.313h27.954c4.032,0,7.313,3.281,7.313,7.313V210.707z
			 M118.127,162.161c3.552-10.667,13.49-17.833,24.732-17.833h15.844h194.585h15.843c11.242,0,21.182,7.166,24.733,17.833
			l24.947,74.93H93.18L118.127,162.161z M117.608,437.358c0,4.159-3.383,7.542-7.542,7.542H51.651c-4.159,0-7.542-3.383-7.542-7.542
			v-39.075h73.499V437.358z M338.11,404.37H173.881c-4.738,0-8.921-2.419-11.38-6.086h186.987
			C347.031,401.951,342.847,404.37,338.11,404.37z M467.885,437.358c0,4.159-3.383,7.542-7.542,7.542h-58.415
			c-4.159,0-7.542-3.383-7.542-7.542v-39.075h73.499V437.358z M496.793,378.216L496.793,378.216
			c-0.001,2.684-2.176,4.858-4.859,4.858h-132.53H152.586H20.066c-2.684,0-4.858-2.175-4.858-4.858v-25.251
			c0-2.683,2.175-4.858,4.858-4.858h82.337c4.199,0,7.604-3.405,7.604-7.604s-3.405-7.604-7.604-7.604H30.93v-59.978
			c0-11.39,9.233-20.623,20.623-20.623h31.081h346.723h31.081c11.39,0,20.623,9.233,20.623,20.623v59.978H137.889
			c-4.199,0-7.604,3.405-7.604,7.604c0,4.199,3.405,7.604,7.604,7.604h354.045c2.683,0,4.858,2.175,4.858,4.858V378.216z"/>
	</g>
</g>
<g>
	<g>
		<path d="M371.57,263.93H140.421c-4.199,0-7.604,3.405-7.604,7.604v44.101c0,4.199,3.404,7.604,7.604,7.604H371.57
			c4.199,0,7.604-3.405,7.604-7.604v-44.101C379.174,267.335,375.769,263.93,371.57,263.93z M171.342,308.031h-23.317v-28.893
			h23.317V308.031z M209.866,308.031h-23.317v-28.893h23.317V308.031z M248.391,308.031h-23.317v-28.893h23.317V308.031z
			 M286.916,308.031h-23.317v-28.893h23.317V308.031z M325.44,308.031h-23.317v-28.893h23.317V308.031z M363.966,308.031h-23.318
			v-28.893h23.318V308.031z"/>
	</g>
</g>
<g>
	<g>
		<path d="M462.813,274.603h-63.87c-4.199,0-7.604,3.405-7.604,7.604v33.456c0,4.199,3.405,7.604,7.604,7.604h63.87
			c4.199,0,7.604-3.405,7.604-7.604v-33.456C470.417,278.007,467.012,274.603,462.813,274.603z M455.209,308.059h-48.662v-18.248
			h48.662V308.059z"/>
	</g>
</g>
<g>
	<g>
		<path d="M113.048,274.603h-63.87c-4.199,0-7.604,3.405-7.604,7.604v33.456c0,4.199,3.405,7.604,7.604,7.604h63.87
			c4.199,0,7.604-3.405,7.604-7.604v-33.456C120.652,278.007,117.248,274.603,113.048,274.603z M105.444,308.059H56.781v-18.248
			h48.662V308.059z"/>
	</g>
</g>
<g>
	<g>
		<path d="M220.497,75.22h-29.159c-2.227,0-3.172,2.429-3.172,4.657c0,2.565,1.148,4.793,3.172,4.793h9.314v36.651
			c0,2.16,2.633,3.239,5.265,3.239c2.633,0,5.265-1.08,5.265-3.239V84.669h9.314c2.025,0,3.172-2.227,3.172-4.793
			C223.669,77.649,222.724,75.22,220.497,75.22z"/>
	</g>
</g>
<g>
	<g>
		<path d="M262.68,119.497l-12.622-41.173c-0.743-2.363-3.78-3.51-6.885-3.51s-6.143,1.147-6.885,3.51l-12.555,41.173
			c-0.067,0.27-0.135,0.539-0.135,0.742c0,2.498,3.848,4.32,6.749,4.32c1.687,0,3.038-0.54,3.442-1.958l2.295-8.437h14.242
			l2.295,8.437c0.406,1.417,1.755,1.958,3.443,1.958c2.902,0,6.749-1.823,6.749-4.32
			C262.815,120.038,262.748,119.768,262.68,119.497z M238.246,106.066l4.927-18.089l4.927,18.089H238.246z"/>
	</g>
</g>
<g>
	<g>
		<path d="M305.131,117.878l-11.677-18.021l11.204-17.953c0.472-0.742,0.675-1.417,0.675-2.093c0-2.835-3.848-4.994-6.817-4.994
			c-1.484,0-2.497,0.539-3.172,1.755l-8.977,15.659l-8.977-15.659c-0.675-1.216-1.688-1.755-3.172-1.755
			c-2.971,0-6.817,2.16-6.817,4.994c0,0.675,0.203,1.35,0.675,2.093l11.204,17.953l-11.677,18.021
			c-0.405,0.674-0.607,1.282-0.607,1.89c0,2.902,4.117,5.197,7.019,5.197c1.08,0,2.025-0.338,2.497-1.08l9.855-16.74l9.854,16.74
			c0.406,0.742,1.417,1.08,2.497,1.08c2.903,0,7.02-2.295,7.02-5.197C305.738,119.161,305.535,118.553,305.131,117.878z"/>
	</g>
</g>
<g>
	<g>
		<path d="M318.559,75.22c-2.632,0-5.264,0.945-5.264,3.172v42.928c0,2.16,2.632,3.239,5.264,3.239c2.633,0,5.265-1.08,5.265-3.239
			V78.392C323.824,76.165,321.192,75.22,318.559,75.22z"/>
	</g>
</g>
<g>
</g>
<g>
</g>
<g>
</g>
<g>
</g>
<g>
</g>
<g>
</g>
<g>
</g>
<g>
</g>
<g>
</g>
<g>
</g>
<g>
</g>
<g>
</g>
<g>
</g>
<g>
</g>
<g>
</g>
</svg>
